<svg xmlns="http://www.w3.org/2000/svg" width="250" height="120" viewBox="0 0 250 120">
  <g id="Group_7636" data-name="Group 7636" transform="translate(-363 -4187)">
    <rect id="Image_165" data-name="Image 165" width="250" height="120" transform="translate(363 4187)" fill="#f9f9fc"/>
    <path id="_92222747" data-name="92222747" d="M229.239,11.963H226.9c-.2,0-.285.061-.342.276l-.3.938h0l-.411,1.331a5.2,5.2,0,0,0-.114,1.993,1.919,1.919,0,0,0,.969,1.38l.684.337.029.02c.08.055.168.116.142.225s-.114.153-.228.153L226.5,18.6l-1.249-.044a4.257,4.257,0,0,0-.883,0l-1.334.044-.889.017c-.139,0-.25,0-.282-.169a1.225,1.225,0,0,1-.187.01l-1.186-.018-1.778-.045a3.3,3.3,0,0,0-1.111.031h-.185l-1.258.016-1.211.016a1.728,1.728,0,0,1-.4-.031c-.124-.063-.216-.125-.216-.283a.274.274,0,0,1,.216-.283l.37-.094.263-.031.262-.031a1.189,1.189,0,0,0,1.049-1.224V2.487c-.092-.91-.463-1.161-1.142-1.287a3.712,3.712,0,0,0-.586-.063.407.407,0,0,1-.247-.094.255.255,0,0,1-.123-.283A.3.3,0,0,1,214.6.509a1.136,1.136,0,0,1,.339-.031l3.3.031h3.7A.3.3,0,0,1,222.2.76a.281.281,0,0,1-.216.314l-.556.094a1.218,1.218,0,0,0-.463.094,1.114,1.114,0,0,0-.864,1.129V16.607a1.109,1.109,0,0,0,.772,1.036l.073.019h0a2.494,2.494,0,0,0,.636.107.941.941,0,0,1,.4.094.231.231,0,0,1,.191.2.374.374,0,0,0,.084-.03,3.038,3.038,0,0,0,1.682-1.227,10.209,10.209,0,0,0,1.368-2.607l1.234-3.543h0l.647-1.915.31-.9v0l1.115-3.3a2.829,2.829,0,0,0,.142-.46.787.787,0,0,0-.314-.828c-.211-.152-.318-.228-.32-.308s.1-.166.32-.336a8.517,8.517,0,0,0,2-2.239l.051-.1h0c.064-.139.133-.288.291-.263.14.021.181.148.223.275a.946.946,0,0,0,.062.154l.794,2.181,0,.012,0,.012.794,2.181,2.166,5.949,2.023,5.612a5.33,5.33,0,0,0,.428.92,1.929,1.929,0,0,0,1.14.859.392.392,0,0,0,.1.031.376.376,0,0,1,.1.031c.114.031.171.092.171.245s-.114.184-.228.184h-.826c-.068,0-.136-.007-.207-.014l-.249-.016c-.314,0-.62-.008-.927-.015l-.926-.015-3.078.061h-.285c-.142,0-.228-.061-.228-.215-.029-.153.086-.215.2-.246.076-.014.153-.033.232-.054l.31-.069.056-.015h0a1.415,1.415,0,0,0,.313-.107.888.888,0,0,0,.484-.767,2.994,2.994,0,0,0-.2-1.227l-.3-.825-1.039-2.916c-.057-.184-.142-.215-.314-.215l-2.337-.031Zm-1.461-2.721-.005.016-.745,2.218h4.7l-2.45-6.694ZM115.345,14.835V11.1a.241.241,0,0,1,.216-.251c.123,0,.216.063.216.188l.071.341.084.381a13.419,13.419,0,0,0,1.2,3.922,5.693,5.693,0,0,0,1.636,2.008,4.072,4.072,0,0,0,2.13.753,5.056,5.056,0,0,0,2.377-.345,3.088,3.088,0,0,0,1.976-3.2,3.246,3.246,0,0,0-1.914-2.824,14.9,14.9,0,0,0-2.588-1.046h0l-.437-.146a17.248,17.248,0,0,1-2.377-.973,4.692,4.692,0,0,1-1.667-1.349,4.278,4.278,0,0,1-.864-2.322A5.393,5.393,0,0,1,120.747.37a8.01,8.01,0,0,1,3.427.722,3.262,3.262,0,0,0,.772.283c.463.094.679,0,.833-.439.062-.157.123-.283.309-.283.216,0,.247.157.278.345.01.1.022.2.035.3v0h0a5.527,5.527,0,0,1,.057.666l.119,1.445h0l.128,1.534.185,1.851v.22c-.031.094-.062.157-.154.188a.206.206,0,0,1-.216-.125,1.01,1.01,0,0,1-.105-.256L126.4,6.77a17.96,17.96,0,0,0-1.081-2.793,6.583,6.583,0,0,0-1.389-1.914,3.953,3.953,0,0,0-2.007-1,4.843,4.843,0,0,0-2.223.063,2.446,2.446,0,0,0-1.574,1.192,2.592,2.592,0,0,0,.247,2.981,4.126,4.126,0,0,0,1.482.941c.638.267,1.3.476,1.956.684l1.255.414a11.612,11.612,0,0,1,2.284,1.036,4.806,4.806,0,0,1,2.408,4.33,5.93,5.93,0,0,1-1.42,4.079,6.305,6.305,0,0,1-3.581,2.1,6.921,6.921,0,0,1-4.414-.5l-.065-.031-.1-.046h0a6.848,6.848,0,0,0-1.04-.425,1,1,0,0,0-1.328.5c0,.031-.031.063-.062.094-.092.125-.185.251-.339.22-.148-.05-.138-.161-.128-.268,0-.026,0-.053,0-.077.062-1.1.062-2.322.062-3.515ZM195.1,11.9a1.245,1.245,0,0,1-.062.439q-.06-.061-.115-.125a.9.9,0,0,0-.162-.157L193.593,10.5v0l-.008-.01-1.173-1.569-6.02-8.1a.518.518,0,0,0-.525-.251h-.772c-.494-.016-.98-.016-1.466-.016s-.973,0-1.467-.016c-.328-.021-.642-.014-.962-.007l-.489.007c-.154,0-.216.094-.247.22a.24.24,0,0,0,.185.314,1.548,1.548,0,0,0,.2.031,1.523,1.523,0,0,1,.2.031,2.668,2.668,0,0,1,1.3.565,5.383,5.383,0,0,1,.8.879.948.948,0,0,1,.185.565V14.6a4.383,4.383,0,0,1-.278,1.663,2.251,2.251,0,0,1-2.068,1.632,1.094,1.094,0,0,0-.34.063c-.154.031-.185.157-.185.283s.093.188.216.22a1.138,1.138,0,0,0,.309.031c.337-.029.68-.025,1.023-.021a9.031,9.031,0,0,0,1.23-.042,6.159,6.159,0,0,1,1.066.005c.213.013.424.026.632.026.154,0,.3.008.448.016s.3.014.448.016h.741c.154,0,.216-.125.247-.251.031-.157-.062-.22-.154-.283a.633.633,0,0,0-.4-.094,2.176,2.176,0,0,1-1.852-1.287,3.762,3.762,0,0,1-.432-1.82V3.993a.428.428,0,0,0-.008-.072h0c-.012-.068-.022-.133.07-.179l.17.22.17.22,2.5,3.4h0l2.5,3.4,2.825,3.844,2.824,3.844a1.34,1.34,0,0,1,.093.11,1.431,1.431,0,0,0,.092.11c.216.22.371.157.432-.125a2.9,2.9,0,0,0,.031-.5V5.06a9.43,9.43,0,0,1,.062-1.318,3.79,3.79,0,0,1,.339-1.287,2.173,2.173,0,0,1,1.466-1.3l.058.006h0q.1.01.208.024a1.22,1.22,0,0,1,1.2,1.318V16.282a1.267,1.267,0,0,1-1.266,1.475,1.138,1.138,0,0,1-.309.031,1.093,1.093,0,0,0-.339.063c-.154.031-.185.157-.185.314a.241.241,0,0,0,.216.251,1.475,1.475,0,0,0,.371.031c.395-.013.785-.015,1.174-.018.584,0,1.166-.008,1.759-.045a13.677,13.677,0,0,1,1.819.011h0l.434.021c.432.016.857.016,1.281.016l1.281.016a13.244,13.244,0,0,0,2.933-.157,7.007,7.007,0,0,0,5.063-3.891,9.906,9.906,0,0,0,.957-3.515,11.66,11.66,0,0,0-.309-4.142,8.156,8.156,0,0,0-2.531-4.079A9.142,9.142,0,0,0,205.534.5c-1.266-.031-2.562-.031-3.766.031-.417-.016-.818-.016-1.208-.016s-.768,0-1.138-.016c-.345-.016-.7-.016-1.055-.012a.684.684,0,0,0-.121-.009h-1.7c-.8.031-1.574.031-2.346,0h-1.7a.236.236,0,0,0-.247.22.252.252,0,0,0,.185.314.231.231,0,0,0,.124.031.611.611,0,0,1,.123.016.611.611,0,0,0,.123.016,2.279,2.279,0,0,1,2.068,1.851,6.218,6.218,0,0,1,.216,1.695V11.9ZM88.681,13.329l.678-1.787v0l2.655-7L93.28,1.185C93.4.84,93.4.84,93.743.84L96.058.824,98.374.809h.309c.154,0,.216.094.247.22a.285.285,0,0,1-.185.345,1.74,1.74,0,0,1-.371.07c-.062.007-.123.014-.185.024a1.548,1.548,0,0,1-.2.031,1.522,1.522,0,0,0-.2.031A1.18,1.18,0,0,0,96.8,2.722V16.749a1.166,1.166,0,0,0,1.049,1.224c.124.016.255.039.386.063s.262.047.386.063c.154.031.278.094.278.283s-.093.283-.309.314c-.371.031-.741.031-1.111.031h0c-.123,0-.239-.008-.355-.016s-.231-.016-.355-.016c-.262,0-.525-.008-.787-.016l-.787-.016c-1.143,0-2.258.03-3.4.06h0l-.088,0a1.479,1.479,0,0,1-.371-.031.334.334,0,0,1-.308-.314c0-.157.123-.22.247-.283a1.033,1.033,0,0,1,.432-.063A.517.517,0,0,0,91.922,18a1.253,1.253,0,0,0,1.2-1.412V2.942a1.185,1.185,0,0,0-.21.4l-.037.1-2.516,6.7-2.516,6.7-.117.32v0h0c-.147.4-.3.818-.468,1.213l-.01.022-.012.025c-.05.108-.094.2-.256.2s-.206-.1-.255-.2h0L86.7,18.38,86,16.561h0l-.71-1.82-.754-1.95-2.7-6.93-.741-1.883-.011-.034h0a.491.491,0,0,0-.2-.309V14.46a6.13,6.13,0,0,0,.339,2.1,2.244,2.244,0,0,0,1.76,1.475,1.635,1.635,0,0,0,.17.031,1.543,1.543,0,0,1,.17.031.249.249,0,0,1,.216.283.274.274,0,0,1-.185.283,2.072,2.072,0,0,1-.709.065l-.186,0L81.9,18.7h0c-.569-.03-1.147-.06-1.708-.036-.324.016-.648.023-.972.031l-.972.031a1.731,1.731,0,0,1-.4-.031c-.154-.031-.216-.157-.247-.314a.273.273,0,0,1,.247-.283.9.9,0,0,1,.139-.031.875.875,0,0,0,.139-.031,2.327,2.327,0,0,0,1.883-1.757,7.313,7.313,0,0,0,.247-2.008V2.974a1.192,1.192,0,0,0-.154-.565A2.178,2.178,0,0,0,78.37,1.374a1.148,1.148,0,0,0-.182-.018.6.6,0,0,1-.25-.045c-.123-.063-.247-.157-.185-.314.031-.157.123-.22.308-.22h1.451c.617.016,1.227.016,1.837.016l1.837.016.151,0c.124,0,.186,0,.229.024s.068.089.116.209h0l.059.144,2.593,6.59,1.945,4.989a1.454,1.454,0,0,1,.4.565ZM29.017.809H32.69a.3.3,0,0,1,.247.251.259.259,0,0,1-.154.314.742.742,0,0,1-.3.079.876.876,0,0,0-.225.047,1.591,1.591,0,0,1-.2.031,1.522,1.522,0,0,0-.2.031,1.2,1.2,0,0,0-1.019,1.224V16.592a1.521,1.521,0,0,0,.371,1.13,1.412,1.412,0,0,0,.926.345c.093.016.185.023.278.031s.185.016.278.031c.154.063.278.125.278.314a.334.334,0,0,1-.309.314c-.371.031-.741.031-1.111.031q-.166,0-.332-.017h0q-.142-.013-.285-.015c-.247,0-.5-.008-.756-.016l-.756-.016c-.7-.024-1.416.006-2.124.036h0l-.685.027h-.988a.59.59,0,0,1-.247-.031.274.274,0,0,1-.216-.283c0-.157.062-.251.185-.283l.371-.094q.1-.014.208-.023h0a1.857,1.857,0,0,0,.409-.07,1.146,1.146,0,0,0,.926-1.161V10.066h0c0-.22,0-.322-.051-.369s-.125-.04-.275-.039H21.053a.165.165,0,0,0-.185.188v6.84A1.226,1.226,0,0,0,22.1,18.1c.093.016.193.023.293.031s.2.016.293.031c.154.063.278.125.278.314,0,.157-.093.283-.309.314-.371.031-.741.031-1.111.031q-.213,0-.425-.016c-.131-.008-.258-.015-.378-.015a9.127,9.127,0,0,1-1.034-.031,9.213,9.213,0,0,0-1.034-.031c-.574.038-1.149.041-1.722.045h0l-1.148.018a1.479,1.479,0,0,1-.371-.031c-.154-.031-.278-.094-.278-.283s.123-.251.278-.314a3.011,3.011,0,0,1,.494-.07l.247-.024a1.232,1.232,0,0,0,1.112-1.349V3.131a2.4,2.4,0,0,0-.031-.471,1.148,1.148,0,0,0-1.111-1.1A3.341,3.341,0,0,0,15.59,1.5a.565.565,0,0,1-.216-.063.341.341,0,0,1-.216-.314.272.272,0,0,1,.278-.251h.247l1.335.016L18.4.9,22.443.871h.309a.307.307,0,0,1,.278.314.274.274,0,0,1-.247.283l-.309.047h0l-.309.047a1.613,1.613,0,0,0-.772.251,1.242,1.242,0,0,0-.463,1V8.747c0,.158,0,.236.039.275s.116.039.269.039h5.773c.154,0,.231,0,.269-.039s.039-.117.039-.275v-5.9a1.185,1.185,0,0,0-1.235-1.287q-.138-.022-.278-.031c-.093-.008-.185-.016-.278-.031-.247-.031-.339-.157-.309-.345S25.314.9,25.561.9h2.284A4.44,4.44,0,0,1,29.019.808Zm82.909,0H106L100.1.84h-.339a.3.3,0,0,0-.247.251.259.259,0,0,0,.154.314.987.987,0,0,0,.123.031.943.943,0,0,1,.124.031q.173.036.348.056a2.641,2.641,0,0,1,.516.1,1.075,1.075,0,0,1,.772.847,3.936,3.936,0,0,1,.062.6V16.812a1.306,1.306,0,0,1-.463,1.036,1.564,1.564,0,0,1-.833.283c-.064.011-.131.018-.2.025a1.8,1.8,0,0,0-.387.069.273.273,0,0,0-.247.283.3.3,0,0,0,.247.283,1.728,1.728,0,0,0,.4.031l1.482-.031,1.482-.031c1.1-.031,2.163,0,3.258.03h.045l3.349.016,3.349.016c.137,0,.207,0,.249-.034s.059-.105.09-.248h0l.157-.811v0l.923-4.9a3.884,3.884,0,0,0,.062-.6.281.281,0,0,0-.216-.314.27.27,0,0,0-.278.188,1.762,1.762,0,0,1-.062.219h0a1.848,1.848,0,0,0-.062.22,10.383,10.383,0,0,1-1.019,2.322,6.44,6.44,0,0,1-6.359,3.263,1.418,1.418,0,0,1-1.327-1.475V10.318c0-.321,0-.478.078-.554s.221-.073.508-.073a2.733,2.733,0,0,1,2.624,1.663,4.421,4.421,0,0,1,.432,1.883c.01.052.017.1.024.157a1.307,1.307,0,0,0,.068.314.262.262,0,0,0,.34.157c.154-.031.185-.125.185-.251V5.423c0-.157-.031-.283-.216-.314s-.278.031-.339.251l-.008.03,0,.017,0,.013h0a1.079,1.079,0,0,0-.046.283,3.585,3.585,0,0,1-.154,1,3.323,3.323,0,0,1-.957,1.569,2.985,2.985,0,0,1-2.192.753c-.169,0-.254,0-.3-.043s-.043-.129-.043-.3V1.72c0-.142,0-.213.035-.248s.1-.035.243-.035a18.507,18.507,0,0,1,2.284.094,5.351,5.351,0,0,1,3.889,2.2A15.793,15.793,0,0,1,113.1,6.3a1.174,1.174,0,0,0,.154.345.206.206,0,0,0,.247.094.239.239,0,0,0,.154-.283,1.138,1.138,0,0,0-.062-.345l-.6-2.463h0l0-.016h0l-.6-2.45c-.047-.191-.07-.285-.13-.332s-.151-.045-.333-.045Zm-72.1,0h6.02c.185-.031.278.063.339.251l1.047,4.273.219.873a.879.879,0,0,1,.031.283c0,.094-.031.188-.123.188l-.056,0c-.073,0-.142.01-.191-.065a1.174,1.174,0,0,1-.154-.345,13.92,13.92,0,0,0-1.235-2.322,5.412,5.412,0,0,0-4.137-2.479A13.15,13.15,0,0,0,39.8,1.4l-.445,0c-.154,0-.231,0-.269.039s-.039.117-.039.275v7c0,.142,0,.213.035.252s.1.047.243.062a3.251,3.251,0,0,0,1.791-.376,3.143,3.143,0,0,0,1.543-2.322,3.964,3.964,0,0,0,.069-.565l.024-.283c.031-.251.123-.345.309-.345.154,0,.247.063.247.22a1.3,1.3,0,0,1,.031.345v8c-.031.125-.093.22-.247.22s-.247-.031-.278-.188a2.171,2.171,0,0,1-.062-.628,4.415,4.415,0,0,0-.71-2.228,2.767,2.767,0,0,0-2.223-1.192h-.494c-.133,0-.2,0-.239.035s-.039.116-.039.279v6.244a3.144,3.144,0,0,0,.093.753,1.339,1.339,0,0,0,1.3,1.129,5.927,5.927,0,0,0,3.118-.439,6.846,6.846,0,0,0,3.488-3.326,9.918,9.918,0,0,0,.8-2.071.908.908,0,0,0,.024-.094.522.522,0,0,1,.068-.188c.062-.094.154-.188.278-.125a.238.238,0,0,1,.185.251,3.96,3.96,0,0,1-.093.847L47.8,15.7h0l-.509,2.714,0,.015c-.059.331-.064.361-.43.33l-2.793-.016c-.934,0-1.868,0-2.794-.016-.51,0-1.016-.013-1.521-.027h0c-.839-.022-1.675-.044-2.522,0l-3.242.063a1.728,1.728,0,0,1-.4-.031.274.274,0,0,1-.216-.283c0-.157.062-.251.185-.283s.247-.063.4-.094l.648-.094a1.024,1.024,0,0,0,.833-.879,2.737,2.737,0,0,0,.062-.722V3.131a2.894,2.894,0,0,0-.093-.722,1.061,1.061,0,0,0-.833-.879,3.9,3.9,0,0,0-.4-.063,3.9,3.9,0,0,1-.4-.063.517.517,0,0,0-.216-.031.258.258,0,0,1-.216-.314.3.3,0,0,1,.247-.283h.339l5.9.031ZM9.483,1.97V1.53a.2.2,0,0,0,.083-.02A.109.109,0,0,1,9.607,1.5a7.577,7.577,0,0,1,4.6,3.7c.155.276.286.564.415.848h0l.234.5c.021.031.038.063.055.094h0a.766.766,0,0,0,.131.188c.093.063.154.094.247.063.093,0,.123-.094.123-.188a1.808,1.808,0,0,0-.031-.408l-.4-2.4-.4-2.4q-.043-.2-.077-.408L14.423.683C14.361.432,14.238.37,13.99.495a.437.437,0,0,1-.062.047h0a.437.437,0,0,0-.062.047A1.1,1.1,0,0,1,13.1.84H2.321a1.228,1.228,0,0,1-.8-.251C1.179.338,1.025.4.932.809A.109.109,0,0,1,.916.855.109.109,0,0,0,.9.9L.1,5.735c-.01.1-.027.209-.045.314a2.44,2.44,0,0,0-.048.628c.006.017.01.034.015.051.02.076.039.143.14.169A.205.205,0,0,0,.407,6.8a2.737,2.737,0,0,0,.185-.314l.463-1.036A7.437,7.437,0,0,1,5.408,1.624c.034-.009.07-.022.108-.036a.675.675,0,0,1,.355-.058V16.247a1.808,1.808,0,0,1-.031.408,1.481,1.481,0,0,1-1.389,1.412,4.525,4.525,0,0,1-.648.063.345.345,0,0,0-.339.345c0,.157.093.251.309.283h.309l3.8-.063c.309,0,.625.008.942.016l.942.016c.128,0,.247.008.362.016s.213.015.317.015h1.173a.248.248,0,0,0,.278-.283c.031-.188-.093-.283-.247-.314h-.216a3.012,3.012,0,0,1-.741-.094,1.3,1.3,0,0,1-1.081-.973,3.5,3.5,0,0,1-.123-.973V1.97Zm50.55-.439a1.111,1.111,0,0,0-.463.094,7.569,7.569,0,0,0-4.661,4.393l-.278.659a.947.947,0,0,1-.154.22.238.238,0,0,1-.247.063.2.2,0,0,1-.123-.251c.01-.073.017-.146.024-.22a2.435,2.435,0,0,1,.069-.439L55.063.934a.643.643,0,0,1,.016-.11.643.643,0,0,0,.016-.11c.062-.251.247-.345.432-.188a1.636,1.636,0,0,0,1.235.345H67.1a1.413,1.413,0,0,0,.926-.283c.309-.22.463-.157.525.22l.216,1.224.216,1.224.247,1.475.247,1.475a2.43,2.43,0,0,1,.031.471c0,.125-.031.22-.154.251a.248.248,0,0,1-.278-.125,6.809,6.809,0,0,1-.316-.628h0l-.147-.313a7.663,7.663,0,0,0-4.878-4.33h-.123a.256.256,0,0,0-.064.226c0,.019,0,.038,0,.057V15.9a4.194,4.194,0,0,0,.123,1.067,1.453,1.453,0,0,0,1.049,1.1,2.528,2.528,0,0,0,.679.094h.247c.185.031.309.125.309.314s-.093.283-.309.314a6.93,6.93,0,0,1-.767.007h0l-.375-.007c-.112,0-.224-.008-.332-.017s-.2-.015-.285-.015c-.371.016-.733,0-1.1-.016s-.726-.031-1.1-.016l-.088,0-3.493.06H57.81c-.216-.031-.309-.125-.278-.314,0-.188.093-.283.309-.314a5.884,5.884,0,0,0,.741-.063,1.421,1.421,0,0,0,1.3-1.224,3.677,3.677,0,0,0,.093-.816V1.907a.808.808,0,0,0,.062-.376ZM164.3.809h-5.8a2.9,2.9,0,0,1-.741,0c-.556-.016-1.112-.016-1.667-.016s-1.111,0-1.667-.016c-.454-.021-.922-.014-1.385-.007l-.683.007c-.278,0-.432.094-.432.283-.031.157.092.283.37.314.093.016.193.023.293.031s.2.016.293.031a1.4,1.4,0,0,1,.9.471,1.535,1.535,0,0,1,.247.973v13.9a1.157,1.157,0,0,1-.988,1.192,1.827,1.827,0,0,1-.387.069c-.068.007-.136.014-.2.025a1.765,1.765,0,0,0-.432.125.238.238,0,0,0-.123.22c0,.125.062.157.154.188l.061.016a1.025,1.025,0,0,0,.278.047c.528,0,1.028.028,1.553.058l.083,0c.408.019.815,0,1.223-.011l.815-.02c.216,0,.432.008.648.016l.648.016c.37,0,.71,0,1.049.031.371,0,.71,0,1.08-.031.216-.031.308-.125.308-.314s-.123-.251-.278-.283a7.718,7.718,0,0,1-.833-.125,1.122,1.122,0,0,1-.957-.941,3.115,3.115,0,0,1-.031-.533V10.348a1.635,1.635,0,0,0-.021-.222c-.025-.182-.049-.356.082-.468a.6.6,0,0,1,.444-.048,1.79,1.79,0,0,0,.2.017,2.769,2.769,0,0,1,2.439,1.506,4.654,4.654,0,0,1,.494,1.946,3.492,3.492,0,0,0,.062.565c0,.157.093.22.247.22s.247-.031.278-.188a1.317,1.317,0,0,0,.031-.345V5.61a.891.891,0,0,0-.031-.283c-.031-.157-.093-.22-.247-.22-.154-.031-.247.063-.278.22a1.749,1.749,0,0,1-.031.283,1.747,1.747,0,0,0-.031.283,3.215,3.215,0,0,1-.864,2.134A2.976,2.976,0,0,1,158.03,9c-.169,0-.254,0-.3-.043s-.043-.129-.043-.3V1.687c0-.142,0-.213.035-.248s.1-.035.243-.035a19.005,19.005,0,0,1,2.315.094A5.383,5.383,0,0,1,164.2,3.759a14.466,14.466,0,0,1,1.42,2.636c.123.251.216.314.371.283s.185-.157.123-.439l-.633-2.589v0l-.632-2.585c-.031-.188-.124-.283-.309-.251H164.3ZM75.221,16.53V9.783l.031-6.747a3.838,3.838,0,0,1,.031-.6,1.058,1.058,0,0,1,.864-.91q.107-.021.216-.031c.069-.008.139-.016.216-.031a1.769,1.769,0,0,0,.587-.094.24.24,0,0,0,.185-.314A.3.3,0,0,0,77.1.808H76.98c-.267,0-.535,0-.8-.007-.535-.007-1.07-.014-1.605.007-.741.031-1.513.031-2.284,0H69.881q-.371,0-.371.283c0,.157.123.283.339.314l.71.094A1.188,1.188,0,0,1,71.64,2.691a2.94,2.94,0,0,1,.031.5V16.372a1.577,1.577,0,0,1-.015.188,1.5,1.5,0,0,0-.016.188c-.093,1.036-.556,1.192-1.2,1.318a1.245,1.245,0,0,1-.339.031,1.525,1.525,0,0,0-.371.063.341.341,0,0,0-.216.314.273.273,0,0,0,.247.283,1.731,1.731,0,0,0,.4.031c.549,0,1.1-.016,1.656-.033.973-.029,1.949-.058,2.913,0,.679.031,1.358.031,2.037.031h0a1.477,1.477,0,0,0,.371-.031c.123-.031.185-.125.185-.283s-.062-.251-.185-.283a.936.936,0,0,0-.4-.094l-.293-.047h0L76.147,18a1.1,1.1,0,0,1-.864-.847,2.171,2.171,0,0,1-.062-.628ZM175.976.541h3.4c.34,0,.494.094.494.314,0,.188-.123.283-.463.314l-.339.047-.34.047a1.124,1.124,0,0,0-.926.941,3.935,3.935,0,0,0-.062.6V16.136a2.854,2.854,0,0,0,.062.722,1.025,1.025,0,0,0,.834.847,2.258,2.258,0,0,0,.417.07l.2.023a1.591,1.591,0,0,0,.2.031,1.548,1.548,0,0,1,.2.031.274.274,0,0,1,.185.283.268.268,0,0,1-.216.283,1.477,1.477,0,0,1-.371.031c-.71,0-1.42,0-2.161-.031-.847-.054-1.7-.025-2.56,0-.641.021-1.281.042-1.916.029a1.477,1.477,0,0,1-.371-.031c-.154-.031-.278-.125-.247-.314a.273.273,0,0,1,.247-.283,1.95,1.95,0,0,1,.476-.08,2.5,2.5,0,0,0,.357-.046,1.166,1.166,0,0,0,1.018-1.1,1.809,1.809,0,0,0,.031-.408V2.581A1.27,1.27,0,0,0,172.8,1.138c-.092-.016-.177-.023-.262-.031s-.17-.016-.262-.031c-.216-.063-.278-.157-.278-.345s.092-.251.339-.251h2.346a9.171,9.171,0,0,0,1.3.063ZM202.6,14.431c0,.376,0,.722.031,1.1a2.18,2.18,0,0,0,1.636,2.134,4.455,4.455,0,0,0,2.562-.031,4.4,4.4,0,0,0,2.624-2.322,9.735,9.735,0,0,0,1.019-3.954,18.267,18.267,0,0,0-.124-4.111,9.253,9.253,0,0,0-1.2-3.577A4.839,4.839,0,0,0,205.9,1.283a9.259,9.259,0,0,0-2.126-.127c-.322.006-.643.011-.961,0a.147.147,0,0,0-.154.157V8.532c-.062,1.914-.062,3.891-.062,5.9ZM147.65,1.844A8.639,8.639,0,0,0,142.711.432c-.432,0-.834,0-1.235.031a8.522,8.522,0,0,0-5.248,2.6A9.326,9.326,0,0,0,133.6,9.124a9.635,9.635,0,0,0,.648,4.174,9.054,9.054,0,0,0,3.921,4.613,8.911,8.911,0,0,0,5.588,1.129,8.468,8.468,0,0,0,5.649-2.855,9.047,9.047,0,0,0,2.377-5.491A9.429,9.429,0,0,0,150.706,5.2a9.073,9.073,0,0,0-3.056-3.358Zm-8.4,14.748a9.114,9.114,0,0,1-1.3-3.326,19.828,19.828,0,0,1-.339-3.765,14.931,14.931,0,0,1,.587-4.362,6.742,6.742,0,0,1,1.513-2.824,3.882,3.882,0,0,1,2.778-1.287,3.7,3.7,0,0,1,2.593.784A5.418,5.418,0,0,1,146.539,3.6a10.829,10.829,0,0,1,1.019,3.357c.093.69.123,1.381.154,2.071h0a16.883,16.883,0,0,1-.309,4.33,8.1,8.1,0,0,1-1.482,3.483,4.054,4.054,0,0,1-6.668-.251Z" transform="translate(369 4237)" fill="#1a1a1a" fill-rule="evenodd"/>
  </g>
</svg>
