<svg xmlns="http://www.w3.org/2000/svg" width="250" height="120" viewBox="0 0 250 120">
  <g id="Group_7639" data-name="Group 7639" transform="translate(-624 -6192)">
    <rect id="Image_558" data-name="Image 558" width="250" height="120" transform="translate(624 6192)" fill="#f9f9fc"/>
    <g id="Page-1" transform="translate(658.447 6229)">
      <g id="logo-vertical" transform="translate(0.552)">
        <g id="Petal-logo-Copy-3" transform="translate(0 0.403)">
          <path id="Path" d="M30.292.423c4.588,0,7.192,3.229,7.192,6.831,0,5.651-4.4,9.315-12.338,9.315-1.116,0-2.356-.062-3.658-.124-.062-1.3-.124-2.546-.124-3.664,0-7.949,3.658-12.358,8.928-12.358Z" transform="translate(-1.524 -0.423)" fill="#87d447" fill-rule="evenodd"/>
          <path id="Path-2" data-name="Path" d="M30.292,37.414c-5.27,0-8.928-4.409-8.928-12.358,0-1.118.062-2.36.124-3.664,1.3-.062,2.542-.124,3.658-.124,7.936,0,12.338,3.664,12.338,9.315,0,3.6-2.6,6.831-7.192,6.831Z" transform="translate(-1.524 -1.396)" fill="#50afcd" fill-rule="evenodd"/>
          <path id="Path-3" data-name="Path" d="M7.744,37.414c-4.588,0-7.192-3.229-7.192-6.831,0-5.651,4.4-9.315,12.338-9.315,1.116,0,2.356.062,3.658.124.062,1.3.124,2.546.124,3.664,0,7.949-3.658,12.358-8.928,12.358Z" transform="translate(-0.552 -1.396)" fill="#efaa02" fill-rule="evenodd"/>
          <path id="Path-4" data-name="Path" d="M7.744.423c5.27,0,8.928,4.409,8.928,12.358,0,1.118-.062,2.36-.124,3.664-1.3.062-2.542.124-3.658.124C4.954,16.569.552,12.9.552,7.254c0-3.6,2.6-6.831,7.192-6.831Z" transform="translate(-0.552 -0.423)" fill="#d95423" fill-rule="evenodd"/>
        </g>
        <path id="dailyhunt-copy-3" d="M59.838,32.724v-.588c-.724,0-1.061-.441-1.061-1.568V.931A.894.894,0,0,0,57.86,0h-4.1a.894.894,0,0,0-.916.931v12.1c-.386-.931-1.5-1.715-3.425-1.715-4.1,0-6.27,3.331-6.27,12s2.17,12,6.27,12a3.984,3.984,0,0,0,3.714-1.862,3.008,3.008,0,0,0,3.183,1.911c2.894,0,3.521-1.421,3.521-2.645Zm-6.994-2.2a2.956,2.956,0,0,1-1.4.343c-1.351,0-2.363-.637-2.363-7.544,0-6.956,1.013-7.544,2.363-7.544a2.956,2.956,0,0,1,1.4.343v14.4Zm24.213,2.2v-.588c-.723,0-1.061-.441-1.061-1.568V18.224c0-4.8-2.46-6.956-7.09-6.956-3.955,0-7.042,2.057-7.042,6.711a1.1,1.1,0,0,0,1.206,1.176h2.99c.675,0,.916-.392.868-1.323-.048-1.029.193-2.253,1.736-2.253,1.4,0,1.736,1.029,1.736,2.2v3.674a14.3,14.3,0,0,0-2.894-.294c-4.727,0-6.463,3.429-6.463,7.054,0,3.772,1.447,7.152,5.354,7.152,2.074,0,3.617-.637,4.244-1.959a2.531,2.531,0,0,0,2.846,1.959c2.942,0,3.569-1.421,3.569-2.645ZM70.4,30.863a2.873,2.873,0,0,1-1.929.637c-1.254-.1-1.833-1.078-1.833-3.233,0-2.253.579-3.625,2.363-3.674.434,0,.868,0,1.4.049v6.221Zm14.663,3.282V12.492a.894.894,0,0,0-.916-.931h-4.1a.894.894,0,0,0-.916.931V34.145a.894.894,0,0,0,.916.931h4.1a.894.894,0,0,0,.916-.931Zm.1-29.295a3.087,3.087,0,1,0-6.174,0,3.133,3.133,0,0,0,3.087,3.135A3.1,3.1,0,0,0,85.16,4.85Zm8.923,29.295V.931A.894.894,0,0,0,93.167,0h-4.1a.894.894,0,0,0-.916.931V34.145a.894.894,0,0,0,.916.931h4.1a.894.894,0,0,0,.916-.931Zm18.666,1.078V12.492a.894.894,0,0,0-.917-.931h-4.1a.894.894,0,0,0-.917.931V30.226a5.008,5.008,0,0,1-2.219.588c-1.013,0-1.543-.49-1.543-1.715V12.492a.894.894,0,0,0-.917-.931h-4.1a.894.894,0,0,0-.917.931V29.246c0,3.968,1.64,6.123,5.209,6.123a6.567,6.567,0,0,0,4.486-1.764v1.862c0,3.772-.868,5.487-3.762,5.487a6.677,6.677,0,0,1-2.267-.441,3.291,3.291,0,0,0-1.158-.343c-.434,0-.675.245-.675.735v3.429c0,1.078,3.087,1.666,4.775,1.666,6.318,0,9.02-3.625,9.02-10.777Zm18.714-1.078V17.391c0-3.968-1.641-6.123-5.162-6.123a6.21,6.21,0,0,0-4.533,2.009V.931A.894.894,0,0,0,120.852,0h-4.1a.894.894,0,0,0-.916.931V34.145a.894.894,0,0,0,.916.931h4.1a.894.894,0,0,0,.917-.931V16.411a5.361,5.361,0,0,1,2.267-.588c1.012,0,1.495.49,1.495,1.715V34.145a.894.894,0,0,0,.916.931h4.1a.894.894,0,0,0,.917-.931Zm19.679-1.421v-.588c-.724,0-1.062-.441-1.062-1.568V12.492a.894.894,0,0,0-.916-.931h-4.1a.894.894,0,0,0-.917.931V30.226a5,5,0,0,1-2.218.588c-1.013,0-1.543-.49-1.543-1.715V12.492a.894.894,0,0,0-.916-.931h-4.1a.894.894,0,0,0-.917.931V29.246c0,3.968,1.641,6.123,5.209,6.123a6.5,6.5,0,0,0,4.727-2.009,3.044,3.044,0,0,0,3.232,2.009c2.894,0,3.521-1.421,3.521-2.645Zm17.7,1.421V17.391c0-3.968-1.641-6.123-5.162-6.123A6.462,6.462,0,0,0,159,13.227a2.432,2.432,0,0,0-2.508-1.666h-2.364a.894.894,0,0,0-.916.931V34.145a.894.894,0,0,0,.916.931h4.1a.894.894,0,0,0,.917-.931V16.411a5.361,5.361,0,0,1,2.267-.588c1.012,0,1.495.49,1.495,1.715V34.145a.894.894,0,0,0,.916.931h4.1a.894.894,0,0,0,.917-.931Zm10.032-18.567h2.46a.894.894,0,0,0,.916-.931V12.492a.894.894,0,0,0-.916-.931h-2.46V6.809a.894.894,0,0,0-.916-.931h-4.1a.894.894,0,0,0-.917.931v4.752H171.3a.894.894,0,0,0-.916.931v2.155a.894.894,0,0,0,.916.931h1.64V30.863c0,3.037,1.543,4.556,4.438,4.556a7.3,7.3,0,0,0,4.341-1.127,2.006,2.006,0,0,0,.82-1.911V31.4c0-.588-.241-.784-.627-.784a2.285,2.285,0,0,0-.724.2,3.508,3.508,0,0,1-1.158.245c-.868,0-1.158-.49-1.158-1.617V15.578Z" transform="translate(-2.542)" fill="#3c3c3c" fill-rule="evenodd"/>
      </g>
    </g>
  </g>
</svg>
