<svg xmlns="http://www.w3.org/2000/svg" width="300" height="46" viewBox="0 0 300 46">
  <g id="Group_7472" data-name="Group 7472" transform="translate(-279.999 -51.556)">
    <path id="Path_4097" data-name="Path 4097" d="M18.385,28.287h6.388V22.735H18.385V15.3H9.512v7.44H4.935v5.552H9.512v13.6c0,1.665,0,3,.115,4.5.337,4.331,2.484,6.441,9.1,6.441a35.19,35.19,0,0,0,5.482-.446V46.832c-4.521.277-5.538-.389-5.764-3.331-.058-.778-.058-1.778-.058-2.777V28.287ZM55.227,29.9c-.677-5.164-4.35-8.162-10.681-8.162a12.01,12.01,0,0,0-7.006,1.888l-2.485,3.554V11.02H26.18V52.107h8.875V38.393c0-7.551,2.6-10.6,6.1-10.659,3.448,0,5.141,1.887,5.368,4.885.113,1.5.113,3,.113,4.108V52.106h8.872V35.395a36.56,36.56,0,0,0-.284-5.5ZM63.3,11.076c-2.824,0-4.691,1.721-4.691,4.386,0,2.721,1.865,4.442,4.691,4.442s4.746-1.721,4.746-4.442c0-2.665-1.921-4.386-4.746-4.386Zm4.463,41.03V22.513H58.894V52.106ZM100.6,29.9c-.677-5.164-4.351-8.162-10.681-8.162a12.021,12.021,0,0,0-7.008,1.888l-2.486,3.554V22.513H71.551V52.106h8.871V38.393c0-7.551,2.6-10.659,6.106-10.659,3.447,0,5.14,1.887,5.368,4.885.113,1.5.113,3,.113,4.108V52.106h8.872V35.395a36.843,36.843,0,0,0-.284-5.5Zm23.447,2.111L141.114,13.8H130.546L114.609,31.564V13.8h-8.872V52.106h8.872V40.17l2.992-3.276,11.586,15.212h11.246l-16.388-20.1Zm21.809-20.933c-2.824,0-4.689,1.721-4.689,4.386,0,2.721,1.863,4.442,4.689,4.442s4.748-1.721,4.748-4.442c0-2.665-1.921-4.386-4.748-4.386Zm4.466,41.03V22.513h-8.873V52.106Zm14.408-23.819h6.382V22.735h-6.382V15.3h-8.872v7.44h-4.579v5.552h4.579v13.6c0,1.665,0,3,.111,4.5.337,4.331,2.486,6.441,9.1,6.441a35.155,35.155,0,0,0,5.481-.446V46.832c-4.52.277-5.538-.389-5.763-3.331-.057-.778-.057-1.778-.057-2.777V28.287Zm20.9-6.551c8.421,0,13.621,5.108,14.072,11.715h-8.645c-.624-4.052-2.713-5.718-5.651-5.718-3.731,0-6.1,3-6.1,9.271,0,6.885,2.43,9.883,6.1,9.883,2.711,0,4.858-1.832,5.538-5.275H199.7c-1.188,7.44-6.95,11.272-14.806,11.272-8.365,0-14.692-5.275-14.692-15.324,0-10.161,6.891-15.823,15.426-15.823ZM230.556,29.9c-.68-5.164-4.352-8.162-10.681-8.162a12.01,12.01,0,0,0-7.006,1.888l-2.485,3.554V11.02h-8.877V52.107h8.877V38.393c0-7.551,2.6-10.6,6.1-10.659,3.448,0,5.143,1.887,5.368,4.885.111,1.5.111,3,.111,4.108V52.106h8.875V35.395a36.745,36.745,0,0,0-.282-5.5Zm31.981,6.885c0-7.883-4.971-15.047-14.578-15.047-9.552,0-15.6,6.774-15.6,15.658,0,10.438,6.611,15.491,15.032,15.491,7.347,0,13-3.609,14.638-10.439H253.27c-.509,2.776-2.6,4.442-5.708,4.442-3.337,0-5.822-1.666-6.331-7.329h21.136a27.02,27.02,0,0,0,.169-2.776Zm-14.975-9.049c3.278,0,5.255,2.165,5.765,6.328h-11.87c.736-4.386,2.941-6.328,6.1-6.328Zm46,2.164c-.678-5.164-4.35-8.162-10.681-8.162a12.011,12.011,0,0,0-7.006,1.888l-2.487,3.554V22.513H264.51V52.106h8.875V38.393c0-7.551,2.6-10.659,6.1-10.659,3.448,0,5.143,1.887,5.37,4.885.113,1.5.113,3,.113,4.108V52.106h8.87V35.395A36.746,36.746,0,0,0,293.559,29.9Z" transform="translate(275.064 44.671)" fill-rule="evenodd"/>
    <path id="Path_4098" data-name="Path 4098" d="M56.331,15.241a1.154,1.154,0,0,1-.027.146l-.1.432c-.01.081-.057.388-.057.475v.134c0,.041.013.049.022.027l.018-.068a2.49,2.49,0,0,0,.067-.276l.005.063h.031l-.062.65c-.01.025-.024.054-.034.081-.027.05-.026.037-.07.061,0,.12-.027.369-.013.463l.013.224a4.614,4.614,0,0,0,.209,1,7.763,7.763,0,0,0,.38.942c.035.077.193.374.2.414-.022-.014-.2-.334-.226-.378a3.107,3.107,0,0,1-.317-.538l-.128-.353s0,0,0-.005a.963.963,0,0,0,.036.191,1.468,1.468,0,0,0,.054.177c.021.062.036.11.059.169a6.152,6.152,0,0,0,.847,1.447c.034.045.068.085.1.129a3.848,3.848,0,0,0,.663.72c.1.066.081.012.027-.048l-.344-.344c-.075-.08-.15-.156-.219-.242-.034-.039-.074-.079-.108-.121s-.049-.052-.1-.125a2.958,2.958,0,0,1-.182-.279l-.119-.23c-.006-.018-.012-.025-.017-.041-.015-.053.015-.048.025-.032a.092.092,0,0,1,.015.032l.1.184a4.011,4.011,0,0,0,.32.439l.09.1c.041.043.063.074.117.074a.121.121,0,0,0-.022-.074c-.015-.025-.027-.041-.039-.063a.527.527,0,0,1-.043-.061l-.386-.542a2.2,2.2,0,0,1-.152-.258,2.176,2.176,0,0,1,.144.217l.114.165c.013.023.026.034.039.055a6.162,6.162,0,0,0,.573.721l.28.281a.823.823,0,0,0,.212.16c-.013-.019-.01-.008-.018-.031a.986.986,0,0,1,.084.066,1.07,1.07,0,0,1,.147.123c0,.012-.005-.019,0,.012,0,.058.375.3.435.316a.217.217,0,0,0-.062-.055.246.246,0,0,1-.064-.057l.292.177c.036.021.066.035.1.057l.406.227-.061-.009a3.67,3.67,0,0,0,.66.308.724.724,0,0,0,.281.055c-.008-.034-.064-.035-.137-.062l-.439-.165a1.426,1.426,0,0,1,.294.081c.093.03.184.062.285.086s.2.049.3.075l.459.1.432.032a.551.551,0,0,1,.088.005,6.683,6.683,0,0,0,.734-.013,6.025,6.025,0,0,0,.659-.085,5.242,5.242,0,0,0,.6-.147,5.946,5.946,0,0,0,.8-.311c.046-.023.085-.037.133-.062a6.392,6.392,0,0,0,.591-.342c.226-.151.331-.237.53-.395l.2-.174a3.216,3.216,0,0,0,.282-.279c.03-.039.064-.061.093-.1a.207.207,0,0,1,.045-.05c.019-.019.028-.023.052-.044a.163.163,0,0,1,.049-.039,2.12,2.12,0,0,0,.288-.369c.052-.075.1-.148.144-.226.139-.224.212-.387.331-.6a.623.623,0,0,0,.03-.066l.25-.6a5.864,5.864,0,0,0,.29-1.2c.008-.053.013-.106.017-.163a5.921,5.921,0,0,0,.035-.707c-.005-.059-.005-.116-.005-.184,0-.121-.054-.586-.072-.68a5.66,5.66,0,0,0-.223-.894,4.737,4.737,0,0,0-.266-.66c-.013-.026-.076-.324-.123-.445-.021-.049-.032-.086-.052-.133a4.631,4.631,0,0,0-.307-.627,5.236,5.236,0,0,0-.586-.806c-.083-.085,0-.013-.1-.092-.018-.013-.032-.027-.053-.043s-.061-.059-.1-.09c-.151-.126-.262-.21-.419-.325a5.379,5.379,0,0,0-.948-.547,2.428,2.428,0,0,0-.57-.183l.035.023a.2.2,0,0,0,.041.022c.166.07.27.13.424.206l.165.09a.9.9,0,0,1-.134-.049l-.124-.057c-.09-.037-.16-.077-.25-.115a2.8,2.8,0,0,0-.528-.2l.041.023c.01.005.008,0,.013.01-.1-.009-.6-.112-.749-.142a3.845,3.845,0,0,0-.4-.057l-.31-.023a.866.866,0,0,1-.116,0,5.766,5.766,0,0,0-.85.035,5.168,5.168,0,0,0-1.429.366,3.564,3.564,0,0,0-.618.285c-.031.041.021.032-.046.064l-.218.112a3.777,3.777,0,0,0-.659.356l-.179.163c-.026.022-.032.03-.057.052l-.531.475a1.188,1.188,0,0,1-.115.114,2.516,2.516,0,0,0-.224.228l-.157.174a4.709,4.709,0,0,0-.337.448,3.746,3.746,0,0,0-.315.589,1.516,1.516,0,0,0-.063.156c-.023.058-.04.1-.059.165-.032.1-.008-.013-.084.144a4.244,4.244,0,0,0-.223.677,3.225,3.225,0,0,0-.114.555,4.444,4.444,0,0,0-.017,1.049c.041,0,.044,0,.052-.089l.027-.4a3.263,3.263,0,0,1,.271-1.371.031.031,0,0,1,.009-.023Z" transform="translate(277.381 44.759)" fill="#006db4" fill-rule="evenodd"/>
    <path id="Path_4119" data-name="Path 4119" d="M135.16,15.3a.74.74,0,0,1-.029.148l-.1.438a4.173,4.173,0,0,0-.055.481l0,.136c0,.042.01.05.022.027l.018-.069a2.424,2.424,0,0,0,.063-.28l.01.064h.031l-.068.659a.526.526,0,0,1-.034.082c-.026.051-.021.038-.068.061a4.473,4.473,0,0,0-.01.47l.01.228a4.68,4.68,0,0,0,.212,1.017,8.824,8.824,0,0,0,.386.955c.038.078.194.379.2.42-.017-.014-.2-.339-.224-.383a2.923,2.923,0,0,1-.322-.546l-.135-.358a.005.005,0,0,0,0-.005,1.077,1.077,0,0,0,.039.194c.018.064.034.116.052.179s.039.111.065.171a6.24,6.24,0,0,0,.859,1.468c.034.046.064.086.1.131a3.845,3.845,0,0,0,.678.73c.1.067.076.012.021-.048l-.347-.349c-.073-.081-.154-.158-.222-.246-.029-.039-.077-.08-.11-.123s-.05-.052-.1-.127c-.069-.093-.122-.181-.184-.283l-.12-.233a.4.4,0,0,0-.014-.042c-.016-.054.014-.048.022-.033a.1.1,0,0,1,.018.033l.1.187a3.885,3.885,0,0,0,.323.445l.09.1c.042.043.067.075.116.075a.122.122,0,0,0-.02-.075c-.01-.025-.026-.042-.037-.064s-.027-.041-.046-.061l-.391-.549a2.669,2.669,0,0,1-.154-.262,2.2,2.2,0,0,1,.152.22l.113.167c.016.024.025.034.039.056a6.487,6.487,0,0,0,.576.731l.284.285a.9.9,0,0,0,.217.162c-.016-.02-.01-.008-.018-.031a.721.721,0,0,1,.086.067,1.365,1.365,0,0,1,.148.124c0,.012-.005-.02,0,.012,0,.059.383.3.444.321a.338.338,0,0,0-.065-.056.24.24,0,0,1-.063-.058l.3.179c.034.021.064.035.1.058l.412.23-.067-.009a3.739,3.739,0,0,0,.678.313.691.691,0,0,0,.28.056c-.008-.034-.065-.035-.137-.063l-.449-.169a1.339,1.339,0,0,1,.3.082c.094.03.187.063.286.088s.207.05.3.076l.466.1.441.033a.618.618,0,0,1,.092.005,6.789,6.789,0,0,0,.744-.013,6.2,6.2,0,0,0,.669-.086,5.558,5.558,0,0,0,.6-.149,6.064,6.064,0,0,0,.818-.315c.042-.024.084-.038.131-.063a6.722,6.722,0,0,0,.6-.347c.226-.153.334-.241.538-.4l.2-.177a3.9,3.9,0,0,0,.286-.283c.03-.039.063-.061.092-.1a.338.338,0,0,1,.044-.051.557.557,0,0,0,.051-.044.409.409,0,0,1,.05-.039,1.889,1.889,0,0,0,.294-.374c.052-.076.1-.15.149-.229.141-.228.215-.392.336-.6.01-.022.016-.041.027-.067l.254-.6a5.789,5.789,0,0,0,.3-1.214c.005-.054.01-.107.017-.165a6,6,0,0,0,.035-.717,1.43,1.43,0,0,1-.008-.187c0-.123-.058-.594-.073-.689a6.373,6.373,0,0,0-.224-.907,5.556,5.556,0,0,0-.269-.67c-.013-.026-.08-.328-.13-.451-.016-.05-.03-.088-.047-.135a5.413,5.413,0,0,0-.311-.636,5.508,5.508,0,0,0-.6-.818c-.082-.086,0-.013-.1-.093l-.052-.043c-.034-.029-.067-.06-.1-.092-.149-.128-.268-.213-.423-.33a5.454,5.454,0,0,0-.962-.555,2.542,2.542,0,0,0-.578-.186l.033.024a.235.235,0,0,0,.044.022c.169.071.271.132.428.209l.167.092a1.011,1.011,0,0,1-.135-.05c-.041-.017-.082-.038-.126-.058-.089-.038-.165-.078-.254-.116a2.943,2.943,0,0,0-.535-.2l.039.024c.013.005.008,0,.016.01-.1-.009-.606-.114-.763-.144a3.954,3.954,0,0,0-.4-.058l-.314-.024a.917.917,0,0,1-.12,0,5.875,5.875,0,0,0-.862.035,5.29,5.29,0,0,0-1.45.372,3.807,3.807,0,0,0-.627.289c-.031.042.024.033-.047.065l-.221.114a3.807,3.807,0,0,0-.666.361l-.183.165a.552.552,0,0,0-.056.052l-.542.481a1.185,1.185,0,0,1-.114.115,2.967,2.967,0,0,0-.23.232L136,13.4a4.365,4.365,0,0,0-.341.454,3.677,3.677,0,0,0-.317.6.872.872,0,0,0-.064.158c-.021.059-.041.1-.06.167-.033.1-.013-.013-.085.147a4.319,4.319,0,0,0-.229.687,3.4,3.4,0,0,0-.113.563,4.519,4.519,0,0,0-.02,1.064c.042,0,.042,0,.054-.09l.03-.407a3.405,3.405,0,0,1,.264-1.391.049.049,0,0,0,.012-.024Z" transform="translate(280.89 43.852)" fill="#006db4" fill-rule="evenodd"/>
    <text id="TM" transform="translate(567.999 60.556)" font-size="9" font-family="Century Gothic" font-weight="700"><tspan x="0" y="0">TM</tspan></text>
  </g>
</svg>
