<svg xmlns="http://www.w3.org/2000/svg" width="87.409" height="14.441" viewBox="0 0 87.409 14.441">
  <g id="Group_7747" data-name="Group 7747" transform="translate(-360 -2230)">
    <path id="Union_3" data-name="Union 3" d="M79.808,11.608l-4.7,2.833L76.353,9.1,72.207,5.506l5.466-.469L79.808,0l2.136,5.037,5.466.469L83.263,9.1,84.5,14.441Zm-18.051,0-4.7,2.833L58.3,9.1,54.156,5.506l5.466-.469L61.756,0l2.136,5.037,5.466.469L65.211,9.1l1.242,5.342Zm-18.052,0-4.7,2.833L40.25,9.1,36.1,5.506l5.466-.469L43.7,0,45.84,5.037l5.466.469L47.159,9.1,48.4,14.441Zm-18.051,0-4.7,2.833L22.2,9.1,18.052,5.506l5.466-.469L25.653,0l2.136,5.037,5.466.469L29.108,9.1l1.242,5.342Zm-18.052,0L2.9,14.441,4.146,9.1,0,5.506l5.466-.469L7.6,0,9.736,5.037l5.466.469L11.056,9.1,12.3,14.441Z" transform="translate(360 2230)" fill="#ffd500"/>
  </g>
</svg>
