<svg xmlns="http://www.w3.org/2000/svg" width="75.151" height="64.443" viewBox="0 0 75.151 64.443">
  <path id="Union_85" data-name="Union 85" d="M50.1,60.537a21.365,21.365,0,0,0,21.2-21.48V35.151H48.171a7.768,7.768,0,0,1-7.709-7.812V7.812A7.768,7.768,0,0,1,48.171,0H67.442a7.768,7.768,0,0,1,7.709,7.812V39.057A25.25,25.25,0,0,1,50.1,64.443Zm-40.462,0a21.364,21.364,0,0,0,21.2-21.48V35.151H7.709A7.768,7.768,0,0,1,0,27.34V7.812A7.768,7.768,0,0,1,7.709,0H26.98a7.768,7.768,0,0,1,7.709,7.812V39.057A25.25,25.25,0,0,1,9.637,64.443Z" transform="translate(75.151 64.443) rotate(180)" fill="#f5f5f5"/>
</svg>
